<svg width="18px" height="18px" viewBox="0 0 18 18" version="1.1" xmlns="http://www.w3.org/2000/svg" xmlns:xlink="http://www.w3.org/1999/xlink">
    <g stroke="none" stroke-width="1" fill="none" fill-rule="evenodd">
        <g transform="translate(-989.000000, -540.000000)">
            <g>
                <g transform="translate(909.000000, 539.000000)">
                    <g transform="translate(80.000000, 1.401100)">
                        <path d="M8.507,1.63424829e-13 C6.196,1.63424829e-13 5.907,0.01 4.999,0.051 C4.094,0.092 3.476,0.236 2.935,0.446 C2.375,0.664 1.901,0.955 1.428,1.428 C0.955,1.9 0.664,2.375 0.446,2.935 C0.236,3.476 0.092,4.094 0.051,5 C0.01,5.907 1.63424829e-13,6.196 1.63424829e-13,8.507 C1.63424829e-13,10.817 0.01,11.107 0.051,12.015 C0.092,12.92 0.236,13.539 0.446,14.08 C0.664,14.64 0.955,15.113 1.428,15.587 C1.901,16.06 2.375,16.351 2.935,16.567 C3.476,16.778 4.094,16.922 4.999,16.963 C5.907,17.005 6.196,17.015 8.507,17.015 C10.818,17.015 11.108,17.005 12.015,16.963 C12.92,16.922 13.539,16.778 14.08,16.567 C14.64,16.351 15.113,16.06 15.587,15.587 C16.06,15.113 16.351,14.64 16.568,14.08 C16.778,13.539 16.922,12.92 16.963,12.015 C17.005,11.107 17.015,10.817 17.015,8.507 C17.015,6.196 17.005,5.907 16.963,5 C16.922,4.094 16.778,3.476 16.568,2.935 C16.351,2.375 16.06,1.9 15.587,1.428 C15.113,0.955 14.64,0.664 14.08,0.446 C13.539,0.236 12.92,0.092 12.015,0.051 C11.108,0.01 10.818,1.63424829e-13 8.507,1.63424829e-13 M8.507,1.532 C10.778,1.532 11.048,1.541 11.945,1.582 C12.775,1.62 13.225,1.759 13.525,1.875 C13.922,2.029 14.205,2.214 14.503,2.512 C14.801,2.81 14.985,3.093 15.139,3.489 C15.256,3.789 15.395,4.24 15.432,5.069 C15.473,5.967 15.482,6.235 15.482,8.507 C15.482,10.778 15.473,11.048 15.432,11.944 C15.395,12.774 15.256,13.225 15.139,13.524 C14.985,13.922 14.801,14.205 14.503,14.503 C14.205,14.801 13.922,14.984 13.525,15.139 C13.225,15.256 12.775,15.395 11.945,15.432 C11.048,15.473 10.779,15.481 8.507,15.481 C6.236,15.481 5.967,15.473 5.069,15.432 C4.24,15.395 3.789,15.256 3.489,15.139 C3.093,14.984 2.81,14.801 2.512,14.503 C2.214,14.205 2.029,13.922 1.875,13.524 C1.759,13.225 1.62,12.774 1.582,11.944 C1.541,11.048 1.532,10.778 1.532,8.507 C1.532,6.235 1.541,5.967 1.582,5.069 C1.62,4.24 1.759,3.789 1.875,3.489 C2.029,3.093 2.214,2.81 2.512,2.512 C2.81,2.214 3.093,2.029 3.489,1.875 C3.789,1.759 4.24,1.62 5.069,1.582 C5.967,1.541 6.236,1.532 8.507,1.532" fill="#2E3543"></path>
                        <path d="M8.507,11.3428 C6.942,11.3428 5.671,10.0728 5.671,8.5068 C5.671,6.9418 6.942,5.6708 8.507,5.6708 C10.073,5.6708 11.343,6.9418 11.343,8.5068 C11.343,10.0728 10.073,11.3428 8.507,11.3428 M8.507,4.1388 C6.095,4.1388 4.139,6.0948 4.139,8.5068 C4.139,10.9198 6.095,12.8758 8.507,12.8758 C10.92,12.8758 12.876,10.9198 12.876,8.5068 C12.876,6.0948 10.92,4.1388 8.507,4.1388" fill="#2E3543"></path>
                        <path d="M14.0695,3.9658 C14.0695,4.5288 13.6125,4.9868 13.0485,4.9868 C12.4845,4.9868 12.0275,4.5288 12.0275,3.9658 C12.0275,3.4028 12.4845,2.9448 13.0485,2.9448 C13.6125,2.9448 14.0695,3.4028 14.0695,3.9658" fill="#2E3543"></path>
                        <path d="M8.507,1.63424829e-13 C6.196,1.63424829e-13 5.907,0.01 4.999,0.051 C4.094,0.092 3.476,0.236 2.935,0.446 C2.375,0.664 1.901,0.955 1.428,1.428 C0.955,1.9 0.664,2.375 0.446,2.935 C0.236,3.476 0.092,4.094 0.051,5 C0.01,5.907 1.63424829e-13,6.196 1.63424829e-13,8.507 C1.63424829e-13,10.817 0.01,11.107 0.051,12.015 C0.092,12.92 0.236,13.539 0.446,14.08 C0.664,14.64 0.955,15.113 1.428,15.587 C1.901,16.06 2.375,16.351 2.935,16.567 C3.476,16.778 4.094,16.922 4.999,16.963 C5.907,17.005 6.196,17.015 8.507,17.015 C10.818,17.015 11.108,17.005 12.015,16.963 C12.92,16.922 13.539,16.778 14.08,16.567 C14.64,16.351 15.113,16.06 15.587,15.587 C16.06,15.113 16.351,14.64 16.568,14.08 C16.778,13.539 16.922,12.92 16.963,12.015 C17.005,11.107 17.015,10.817 17.015,8.507 C17.015,6.196 17.005,5.907 16.963,5 C16.922,4.094 16.778,3.476 16.568,2.935 C16.351,2.375 16.06,1.9 15.587,1.428 C15.113,0.955 14.64,0.664 14.08,0.446 C13.539,0.236 12.92,0.092 12.015,0.051 C11.108,0.01 10.818,1.63424829e-13 8.507,1.63424829e-13 M8.507,1.532 C10.778,1.532 11.048,1.541 11.945,1.582 C12.775,1.62 13.225,1.759 13.525,1.875 C13.922,2.029 14.205,2.214 14.503,2.512 C14.801,2.81 14.985,3.093 15.139,3.489 C15.256,3.789 15.395,4.24 15.432,5.069 C15.473,5.967 15.482,6.235 15.482,8.507 C15.482,10.778 15.473,11.048 15.432,11.944 C15.395,12.774 15.256,13.225 15.139,13.524 C14.985,13.922 14.801,14.205 14.503,14.503 C14.205,14.801 13.922,14.984 13.525,15.139 C13.225,15.256 12.775,15.395 11.945,15.432 C11.048,15.473 10.779,15.481 8.507,15.481 C6.236,15.481 5.967,15.473 5.069,15.432 C4.24,15.395 3.789,15.256 3.489,15.139 C3.093,14.984 2.81,14.801 2.512,14.503 C2.214,14.205 2.029,13.922 1.875,13.524 C1.759,13.225 1.62,12.774 1.582,11.944 C1.541,11.048 1.532,10.778 1.532,8.507 C1.532,6.235 1.541,5.967 1.582,5.069 C1.62,4.24 1.759,3.789 1.875,3.489 C2.029,3.093 2.214,2.81 2.512,2.512 C2.81,2.214 3.093,2.029 3.489,1.875 C3.789,1.759 4.24,1.62 5.069,1.582 C5.967,1.541 6.236,1.532 8.507,1.532" fill="#292929"></path>
                        <path d="M8.507,11.3428 C6.942,11.3428 5.671,10.0728 5.671,8.5068 C5.671,6.9418 6.942,5.6708 8.507,5.6708 C10.073,5.6708 11.343,6.9418 11.343,8.5068 C11.343,10.0728 10.073,11.3428 8.507,11.3428 M8.507,4.1388 C6.095,4.1388 4.139,6.0948 4.139,8.5068 C4.139,10.9198 6.095,12.8758 8.507,12.8758 C10.92,12.8758 12.876,10.9198 12.876,8.5068 C12.876,6.0948 10.92,4.1388 8.507,4.1388" fill="#292929"></path>
                        <path d="M14.0695,3.9658 C14.0695,4.5288 13.6125,4.9868 13.0485,4.9868 C12.4845,4.9868 12.0275,4.5288 12.0275,3.9658 C12.0275,3.4028 12.4845,2.9448 13.0485,2.9448 C13.6125,2.9448 14.0695,3.4028 14.0695,3.9658" fill="#292929"></path>
                    </g>
                </g>
            </g>
        </g>
    </g>
</svg>