<svg width="16px" height="17px" viewBox="0 0 16 17" version="1.1" xmlns="http://www.w3.org/2000/svg" xmlns:xlink="http://www.w3.org/1999/xlink">
    <defs>
        <polygon points="0.675845164 0.584 15.5128 0.584 15.5128 17.5987212 0.675845164 17.5987212"></polygon>
    </defs>
    <g stroke="none" stroke-width="1" fill="none" fill-rule="evenodd">
        <g transform="translate(-1036.000000, -540.000000)">
            <g>
                <g transform="translate(909.000000, 539.000000)">
                    <g transform="translate(126.520500, 0.415600)">
                        <mask fill="white">
                            <use xlink:href="#path-1"></use>
                        </mask>
                        <g></g>
                        <path d="M14.6648,4.5848 L14.6648,4.5848 C14.3188,4.5028 13.9838,4.3808 13.6668,4.2228 C13.0508,3.9158 12.5898,3.4258 12.4788,3.3158 C12.4778,3.3138 12.4768,3.3128 12.4758,3.3118 C12.4768,3.3128 12.4788,3.3138 12.4808,3.3158 L12.4648,3.2968 C11.2888,1.9528 11.4498,0.5838 11.4498,0.5838 L10.6408,0.5838 C10.6408,0.5858 10.6408,0.5868 10.6418,0.5888 C10.6398,0.5858 10.6388,0.5838 10.6388,0.5838 L8.5108,0.5838 L8.5108,11.8818 C8.5108,12.2798 8.5128,12.6628 8.3798,13.0448 C8.1668,13.6558 7.7088,14.2068 7.0978,14.4528 C6.1838,14.8178 5.4688,14.7788 4.6168,14.2148 C4.4048,14.0688 4.2188,13.8878 4.0668,13.6808 C4.0618,13.6788 4.0568,13.6758 4.0518,13.6728 C4.0568,13.6758 4.0618,13.6778 4.0668,13.6808 C3.6708,13.1398 3.5848,12.5128 3.5878,12.0348 C3.6888,11.1518 4.0368,10.6578 4.6898,10.1518 C5.6248,9.4648 6.7928,9.8538 6.7928,9.8538 L6.7928,6.8918 C6.5108,6.8488 6.2268,6.8308 5.9438,6.8388 C5.3048,6.8498 4.6738,6.9828 4.0858,7.2298 C3.5408,7.4398 3.0348,7.7398 2.5888,8.1158 C2.0828,8.5518 1.6558,9.0738 1.3288,9.6558 C1.2048,9.8688 0.7368,10.7208 0.6788,12.1088 C0.6468,12.8958 0.8828,13.7078 0.9958,14.0458 L0.9958,14.0488 C1.0658,14.2438 1.3428,14.9258 1.7978,15.5028 C1.9288,15.6708 2.0698,15.8298 2.2198,15.9828 L2.2208,15.9838 C2.4838,16.2478 2.7698,16.4888 3.0768,16.7008 C4.4978,17.6628 6.0768,17.5978 6.0768,17.5978 C6.3488,17.5858 7.2628,17.5978 8.3028,17.1088 C9.4578,16.5648 10.1118,15.7578 10.1118,15.7578 C10.2108,15.6358 10.7488,15.0388 11.0968,14.1298 C11.3648,13.4348 11.4518,12.6018 11.4518,12.2678 L11.4518,6.2758 C11.4898,6.2968 11.9648,6.6078 11.9648,6.6078 C11.9648,6.6078 12.6498,7.0418 13.7158,7.3268 C14.4808,7.5288 15.5128,7.5718 15.5128,7.5718 L15.5128,4.6688 C15.3178,4.6898 15.0168,4.6668 14.6648,4.5848 L14.6648,4.5848 Z" fill="#2E3543" mask="url(#mask-2)"></path>
                    </g>
                </g>
            </g>
        </g>
    </g>
</svg>